<mxfile host="app.diagrams.net" agent="Mozilla/5.0 (Windows NT 10.0; Win64; x64) AppleWebKit/537.36 (KHTML, like Gecko) Chrome/130.0.0.0 Safari/537.36" version="24.8.2">
  <diagram name="Page-1" id="-Jc1IERX7EY_bYW_jPpP">
    <mxGraphModel dx="1313" dy="653" grid="1" gridSize="10" guides="1" tooltips="1" connect="1" arrows="1" fold="1" page="1" pageScale="1" pageWidth="850" pageHeight="1100" math="0" shadow="0">
      <root>
        <mxCell id="0" />
        <mxCell id="1" parent="0" />
        <mxCell id="hOnfbPIab15JWXcpNu_4-20" style="edgeStyle=orthogonalEdgeStyle;rounded=0;orthogonalLoop=1;jettySize=auto;html=1;exitX=0.5;exitY=0.5;exitDx=0;exitDy=0;exitPerimeter=0;entryX=0;entryY=0.5;entryDx=0;entryDy=0;" edge="1" parent="1" source="Xn-UC9uPtZDTchCGwuse-1" target="Xn-UC9uPtZDTchCGwuse-9">
          <mxGeometry relative="1" as="geometry" />
        </mxCell>
        <mxCell id="Xn-UC9uPtZDTchCGwuse-1" value="&lt;font style=&quot;font-size: 12px;&quot;&gt;Kader Posyandu&lt;/font&gt;" style="shape=umlActor;verticalLabelPosition=bottom;verticalAlign=top;html=1;outlineConnect=0;" parent="1" vertex="1">
          <mxGeometry x="42" y="240" width="30" height="60" as="geometry" />
        </mxCell>
        <mxCell id="hOnfbPIab15JWXcpNu_4-21" style="edgeStyle=orthogonalEdgeStyle;rounded=0;orthogonalLoop=1;jettySize=auto;html=1;exitX=0.5;exitY=0.5;exitDx=0;exitDy=0;exitPerimeter=0;" edge="1" parent="1" source="Xn-UC9uPtZDTchCGwuse-2" target="hOnfbPIab15JWXcpNu_4-8">
          <mxGeometry relative="1" as="geometry" />
        </mxCell>
        <mxCell id="Xn-UC9uPtZDTchCGwuse-2" value="&lt;font style=&quot;font-size: 12px;&quot;&gt;Bidan&lt;/font&gt;" style="shape=umlActor;verticalLabelPosition=bottom;verticalAlign=top;html=1;outlineConnect=0;" parent="1" vertex="1">
          <mxGeometry x="46" y="358" width="30" height="60" as="geometry" />
        </mxCell>
        <mxCell id="hOnfbPIab15JWXcpNu_4-25" style="edgeStyle=orthogonalEdgeStyle;rounded=0;orthogonalLoop=1;jettySize=auto;html=1;exitX=0.5;exitY=0.5;exitDx=0;exitDy=0;exitPerimeter=0;entryX=0;entryY=0.5;entryDx=0;entryDy=0;" edge="1" parent="1" source="Xn-UC9uPtZDTchCGwuse-3" target="hOnfbPIab15JWXcpNu_4-9">
          <mxGeometry relative="1" as="geometry" />
        </mxCell>
        <mxCell id="Xn-UC9uPtZDTchCGwuse-3" value="&lt;font style=&quot;font-size: 12px;&quot;&gt;Orang Tua&lt;/font&gt;" style="shape=umlActor;verticalLabelPosition=bottom;verticalAlign=top;html=1;outlineConnect=0;" parent="1" vertex="1">
          <mxGeometry x="45" y="479" width="30" height="60" as="geometry" />
        </mxCell>
        <mxCell id="hOnfbPIab15JWXcpNu_4-28" style="edgeStyle=orthogonalEdgeStyle;rounded=0;orthogonalLoop=1;jettySize=auto;html=1;exitX=0.5;exitY=0.5;exitDx=0;exitDy=0;exitPerimeter=0;entryX=0;entryY=0.5;entryDx=0;entryDy=0;" edge="1" parent="1" source="Xn-UC9uPtZDTchCGwuse-4" target="hOnfbPIab15JWXcpNu_4-12">
          <mxGeometry relative="1" as="geometry" />
        </mxCell>
        <mxCell id="Xn-UC9uPtZDTchCGwuse-4" value="&lt;font style=&quot;font-size: 12px;&quot;&gt;Admin&lt;/font&gt;" style="shape=umlActor;verticalLabelPosition=bottom;verticalAlign=top;html=1;outlineConnect=0;" parent="1" vertex="1">
          <mxGeometry x="42" y="838" width="30" height="60" as="geometry" />
        </mxCell>
        <mxCell id="Xn-UC9uPtZDTchCGwuse-6" value="&lt;font style=&quot;font-size: 40px;&quot;&gt;Use Case Diagram Posyandu&lt;/font&gt;" style="text;html=1;align=center;verticalAlign=middle;whiteSpace=wrap;rounded=0;" parent="1" vertex="1">
          <mxGeometry x="190" y="100" width="570" height="100" as="geometry" />
        </mxCell>
        <mxCell id="hOnfbPIab15JWXcpNu_4-30" style="edgeStyle=orthogonalEdgeStyle;rounded=0;orthogonalLoop=1;jettySize=auto;html=1;exitX=1;exitY=0.5;exitDx=0;exitDy=0;entryX=0;entryY=0.5;entryDx=0;entryDy=0;dashed=1;" edge="1" parent="1" source="Xn-UC9uPtZDTchCGwuse-9" target="hOnfbPIab15JWXcpNu_4-14">
          <mxGeometry relative="1" as="geometry" />
        </mxCell>
        <mxCell id="Xn-UC9uPtZDTchCGwuse-9" value="Mengolah data aktivitas posyandu" style="ellipse;whiteSpace=wrap;html=1;" parent="1" vertex="1">
          <mxGeometry x="185" y="240" width="140" height="60" as="geometry" />
        </mxCell>
        <mxCell id="hOnfbPIab15JWXcpNu_4-26" style="edgeStyle=orthogonalEdgeStyle;rounded=0;orthogonalLoop=1;jettySize=auto;html=1;exitX=0.5;exitY=0.5;exitDx=0;exitDy=0;exitPerimeter=0;entryX=0;entryY=0.5;entryDx=0;entryDy=0;" edge="1" parent="1" source="hOnfbPIab15JWXcpNu_4-5" target="hOnfbPIab15JWXcpNu_4-10">
          <mxGeometry relative="1" as="geometry" />
        </mxCell>
        <mxCell id="hOnfbPIab15JWXcpNu_4-5" value="&lt;font style=&quot;font-size: 12px;&quot;&gt;Remaja&lt;/font&gt;" style="shape=umlActor;verticalLabelPosition=bottom;verticalAlign=top;html=1;outlineConnect=0;" vertex="1" parent="1">
          <mxGeometry x="47" y="598" width="30" height="60" as="geometry" />
        </mxCell>
        <mxCell id="hOnfbPIab15JWXcpNu_4-27" style="edgeStyle=orthogonalEdgeStyle;rounded=0;orthogonalLoop=1;jettySize=auto;html=1;exitX=0.5;exitY=0.5;exitDx=0;exitDy=0;exitPerimeter=0;entryX=0;entryY=0.5;entryDx=0;entryDy=0;" edge="1" parent="1" source="hOnfbPIab15JWXcpNu_4-7" target="hOnfbPIab15JWXcpNu_4-11">
          <mxGeometry relative="1" as="geometry" />
        </mxCell>
        <mxCell id="hOnfbPIab15JWXcpNu_4-7" value="&lt;font style=&quot;font-size: 12px;&quot;&gt;Lansia&lt;/font&gt;" style="shape=umlActor;verticalLabelPosition=bottom;verticalAlign=top;html=1;outlineConnect=0;" vertex="1" parent="1">
          <mxGeometry x="43" y="719" width="30" height="60" as="geometry" />
        </mxCell>
        <mxCell id="hOnfbPIab15JWXcpNu_4-8" value="Melihat Riwayat Kesehatan Peserta" style="ellipse;whiteSpace=wrap;html=1;" vertex="1" parent="1">
          <mxGeometry x="190" y="363" width="130" height="50" as="geometry" />
        </mxCell>
        <mxCell id="hOnfbPIab15JWXcpNu_4-9" value="Melihat Informasi Tumbuh Kembang Balita" style="ellipse;whiteSpace=wrap;html=1;" vertex="1" parent="1">
          <mxGeometry x="190" y="484" width="130" height="50" as="geometry" />
        </mxCell>
        <mxCell id="hOnfbPIab15JWXcpNu_4-10" value="Melihat Informasi Kesehatan Remaja" style="ellipse;whiteSpace=wrap;html=1;" vertex="1" parent="1">
          <mxGeometry x="190" y="603" width="130" height="50" as="geometry" />
        </mxCell>
        <mxCell id="hOnfbPIab15JWXcpNu_4-11" value="Melihat Informasi Kesehatan Lansia" style="ellipse;whiteSpace=wrap;html=1;" vertex="1" parent="1">
          <mxGeometry x="190" y="724" width="130" height="50" as="geometry" />
        </mxCell>
        <mxCell id="hOnfbPIab15JWXcpNu_4-29" style="edgeStyle=orthogonalEdgeStyle;rounded=0;orthogonalLoop=1;jettySize=auto;html=1;exitX=1;exitY=0.5;exitDx=0;exitDy=0;entryX=0;entryY=0.5;entryDx=0;entryDy=0;dashed=1;" edge="1" parent="1" source="hOnfbPIab15JWXcpNu_4-12" target="hOnfbPIab15JWXcpNu_4-17">
          <mxGeometry relative="1" as="geometry" />
        </mxCell>
        <mxCell id="hOnfbPIab15JWXcpNu_4-12" value="Mengawasi Keberjalanan Sistem" style="ellipse;whiteSpace=wrap;html=1;" vertex="1" parent="1">
          <mxGeometry x="190" y="843" width="130" height="50" as="geometry" />
        </mxCell>
        <mxCell id="hOnfbPIab15JWXcpNu_4-13" value="" style="rounded=0;whiteSpace=wrap;html=1;" vertex="1" parent="1">
          <mxGeometry x="1190" y="160" width="120" height="310" as="geometry" />
        </mxCell>
        <mxCell id="hOnfbPIab15JWXcpNu_4-31" style="edgeStyle=orthogonalEdgeStyle;rounded=0;orthogonalLoop=1;jettySize=auto;html=1;exitX=1;exitY=0.5;exitDx=0;exitDy=0;entryX=0;entryY=0.5;entryDx=0;entryDy=0;dashed=1;" edge="1" parent="1" source="hOnfbPIab15JWXcpNu_4-14" target="hOnfbPIab15JWXcpNu_4-15">
          <mxGeometry relative="1" as="geometry" />
        </mxCell>
        <mxCell id="hOnfbPIab15JWXcpNu_4-14" value="Memasukkan Data Perkembangan Kesehatan" style="ellipse;whiteSpace=wrap;html=1;" vertex="1" parent="1">
          <mxGeometry x="370" y="240" width="140" height="60" as="geometry" />
        </mxCell>
        <mxCell id="hOnfbPIab15JWXcpNu_4-15" value="Memperbarui Informasi Kegiatan Posyandu" style="ellipse;whiteSpace=wrap;html=1;" vertex="1" parent="1">
          <mxGeometry x="550" y="240" width="140" height="60" as="geometry" />
        </mxCell>
        <mxCell id="hOnfbPIab15JWXcpNu_4-16" value="Melihat Laporan Tumbuh Kembang dan Kesehatan" style="ellipse;whiteSpace=wrap;html=1;" vertex="1" parent="1">
          <mxGeometry x="370" y="360" width="130" height="53" as="geometry" />
        </mxCell>
        <mxCell id="hOnfbPIab15JWXcpNu_4-17" value="Mengelola Teknis Sistem" style="ellipse;whiteSpace=wrap;html=1;" vertex="1" parent="1">
          <mxGeometry x="375" y="843" width="130" height="50" as="geometry" />
        </mxCell>
        <mxCell id="hOnfbPIab15JWXcpNu_4-24" style="edgeStyle=orthogonalEdgeStyle;rounded=0;orthogonalLoop=1;jettySize=auto;html=1;exitX=1;exitY=0.5;exitDx=0;exitDy=0;entryX=-0.005;entryY=0.526;entryDx=0;entryDy=0;entryPerimeter=0;dashed=1;" edge="1" parent="1" source="hOnfbPIab15JWXcpNu_4-8" target="hOnfbPIab15JWXcpNu_4-16">
          <mxGeometry relative="1" as="geometry" />
        </mxCell>
      </root>
    </mxGraphModel>
  </diagram>
</mxfile>
